<mxfile host="app.diagrams.net" agent="Mozilla/5.0 (Windows NT 10.0; Win64; x64; rv:143.0) Gecko/20100101 Firefox/143.0" version="28.2.5">
  <diagram name="PÃ¡gina-1" id="L04OOsNvD2_cBGeadaDn">
    <mxGraphModel dx="1042" dy="597" grid="1" gridSize="10" guides="1" tooltips="1" connect="1" arrows="1" fold="1" page="1" pageScale="1" pageWidth="1654" pageHeight="1169" background="light-dark(#EEDAEF,#121212)" math="0" shadow="0">
      <root>
        <mxCell id="0" />
        <mxCell id="1" parent="0" />
        <mxCell id="Ws2jQ66hmhG18UFXB_ZG-1" value="AGENCIA" style="whiteSpace=wrap;html=1;align=center;fillColor=#fff2cc;strokeColor=#d6b656;" vertex="1" parent="1">
          <mxGeometry x="460" y="10" width="100" height="40" as="geometry" />
        </mxCell>
        <mxCell id="Ws2jQ66hmhG18UFXB_ZG-2" value="PAQTUR" style="whiteSpace=wrap;html=1;align=center;fillColor=#fff2cc;strokeColor=#d6b656;" vertex="1" parent="1">
          <mxGeometry x="460" y="260" width="100" height="40" as="geometry" />
        </mxCell>
        <mxCell id="Ws2jQ66hmhG18UFXB_ZG-3" value="CLIENTE" style="whiteSpace=wrap;html=1;align=center;fillColor=#fff2cc;strokeColor=#d6b656;" vertex="1" parent="1">
          <mxGeometry x="80" y="260" width="100" height="40" as="geometry" />
        </mxCell>
        <mxCell id="Ws2jQ66hmhG18UFXB_ZG-5" value="MEDIOPAGO" style="whiteSpace=wrap;html=1;align=center;fillColor=#fff2cc;strokeColor=#d6b656;" vertex="1" parent="1">
          <mxGeometry x="80" y="520" width="100" height="40" as="geometry" />
        </mxCell>
        <mxCell id="Ws2jQ66hmhG18UFXB_ZG-6" value="BANCO" style="whiteSpace=wrap;html=1;align=center;fillColor=#fff2cc;strokeColor=#d6b656;" vertex="1" parent="1">
          <mxGeometry x="410" y="520" width="100" height="40" as="geometry" />
        </mxCell>
        <mxCell id="Ws2jQ66hmhG18UFXB_ZG-9" value="" style="endArrow=none;html=1;rounded=0;exitX=0.5;exitY=0;exitDx=0;exitDy=0;" edge="1" parent="1" source="Ws2jQ66hmhG18UFXB_ZG-2">
          <mxGeometry relative="1" as="geometry">
            <mxPoint x="460" y="340" as="sourcePoint" />
            <mxPoint x="510" y="160" as="targetPoint" />
            <Array as="points" />
          </mxGeometry>
        </mxCell>
        <mxCell id="Ws2jQ66hmhG18UFXB_ZG-11" value="" style="endArrow=none;html=1;rounded=0;exitX=1;exitY=0.5;exitDx=0;exitDy=0;entryX=0;entryY=0.5;entryDx=0;entryDy=0;" edge="1" parent="1" source="Ws2jQ66hmhG18UFXB_ZG-21" target="Ws2jQ66hmhG18UFXB_ZG-2">
          <mxGeometry relative="1" as="geometry">
            <mxPoint x="610" y="270" as="sourcePoint" />
            <mxPoint x="810" y="270" as="targetPoint" />
          </mxGeometry>
        </mxCell>
        <mxCell id="Ws2jQ66hmhG18UFXB_ZG-12" value="" style="endArrow=none;html=1;rounded=0;exitX=0.5;exitY=1;exitDx=0;exitDy=0;entryX=0.5;entryY=0;entryDx=0;entryDy=0;" edge="1" parent="1" source="Ws2jQ66hmhG18UFXB_ZG-3" target="Ws2jQ66hmhG18UFXB_ZG-5">
          <mxGeometry relative="1" as="geometry">
            <mxPoint x="290" y="340" as="sourcePoint" />
            <mxPoint x="490" y="340" as="targetPoint" />
          </mxGeometry>
        </mxCell>
        <mxCell id="Ws2jQ66hmhG18UFXB_ZG-13" value="" style="endArrow=none;html=1;rounded=0;exitX=1;exitY=0.5;exitDx=0;exitDy=0;entryX=0;entryY=0.5;entryDx=0;entryDy=0;" edge="1" parent="1" source="Ws2jQ66hmhG18UFXB_ZG-5" target="Ws2jQ66hmhG18UFXB_ZG-6">
          <mxGeometry relative="1" as="geometry">
            <mxPoint x="350" y="410" as="sourcePoint" />
            <mxPoint x="550" y="410" as="targetPoint" />
          </mxGeometry>
        </mxCell>
        <mxCell id="Ws2jQ66hmhG18UFXB_ZG-16" value="HaceCombo" style="shape=rhombus;perimeter=rhombusPerimeter;whiteSpace=wrap;html=1;align=center;fillColor=#dae8fc;strokeColor=#6c8ebf;" vertex="1" parent="1">
          <mxGeometry x="620" y="255" width="100" height="50" as="geometry" />
        </mxCell>
        <mxCell id="Ws2jQ66hmhG18UFXB_ZG-17" value="" style="endArrow=none;html=1;rounded=0;exitX=1;exitY=0.5;exitDx=0;exitDy=0;entryX=0;entryY=0.5;entryDx=0;entryDy=0;" edge="1" parent="1" source="Ws2jQ66hmhG18UFXB_ZG-2" target="Ws2jQ66hmhG18UFXB_ZG-16">
          <mxGeometry relative="1" as="geometry">
            <mxPoint x="460" y="270" as="sourcePoint" />
            <mxPoint x="620" y="270" as="targetPoint" />
          </mxGeometry>
        </mxCell>
        <mxCell id="Ws2jQ66hmhG18UFXB_ZG-20" value="Tiene" style="shape=rhombus;perimeter=rhombusPerimeter;whiteSpace=wrap;html=1;align=center;fillColor=#dae8fc;strokeColor=#6c8ebf;" vertex="1" parent="1">
          <mxGeometry x="94" y="380" width="70" height="40" as="geometry" />
        </mxCell>
        <mxCell id="Ws2jQ66hmhG18UFXB_ZG-21" value="Compra" style="shape=rhombus;perimeter=rhombusPerimeter;whiteSpace=wrap;html=1;align=center;fillColor=#dae8fc;strokeColor=#6c8ebf;" vertex="1" parent="1">
          <mxGeometry x="290" y="260" width="70" height="40" as="geometry" />
        </mxCell>
        <mxCell id="Ws2jQ66hmhG18UFXB_ZG-22" value="Ofrece" style="shape=rhombus;perimeter=rhombusPerimeter;whiteSpace=wrap;html=1;align=center;fillColor=#dae8fc;strokeColor=#6c8ebf;" vertex="1" parent="1">
          <mxGeometry x="470" y="120" width="80" height="40" as="geometry" />
        </mxCell>
        <mxCell id="Ws2jQ66hmhG18UFXB_ZG-23" value="Autoriza" style="shape=rhombus;perimeter=rhombusPerimeter;whiteSpace=wrap;html=1;align=center;fillColor=#dae8fc;strokeColor=#6c8ebf;" vertex="1" parent="1">
          <mxGeometry x="250" y="520" width="90" height="40" as="geometry" />
        </mxCell>
        <mxCell id="Ws2jQ66hmhG18UFXB_ZG-24" value="" style="endArrow=none;html=1;rounded=0;exitX=0.5;exitY=0;exitDx=0;exitDy=0;entryX=0.5;entryY=1;entryDx=0;entryDy=0;" edge="1" parent="1" source="Ws2jQ66hmhG18UFXB_ZG-22" target="Ws2jQ66hmhG18UFXB_ZG-1">
          <mxGeometry relative="1" as="geometry">
            <mxPoint x="500" y="290" as="sourcePoint" />
            <mxPoint x="500" y="190" as="targetPoint" />
            <Array as="points" />
          </mxGeometry>
        </mxCell>
        <mxCell id="Ws2jQ66hmhG18UFXB_ZG-25" value="" style="endArrow=none;html=1;rounded=0;entryX=1;entryY=0.5;entryDx=0;entryDy=0;exitX=0.5;exitY=1;exitDx=0;exitDy=0;" edge="1" parent="1" source="Ws2jQ66hmhG18UFXB_ZG-2" target="Ws2jQ66hmhG18UFXB_ZG-16">
          <mxGeometry relative="1" as="geometry">
            <mxPoint x="460" y="270" as="sourcePoint" />
            <mxPoint x="620" y="270" as="targetPoint" />
            <Array as="points">
              <mxPoint x="510" y="340" />
              <mxPoint x="720" y="340" />
            </Array>
          </mxGeometry>
        </mxCell>
        <mxCell id="Ws2jQ66hmhG18UFXB_ZG-26" value="" style="endArrow=none;html=1;rounded=0;exitX=0;exitY=0.5;exitDx=0;exitDy=0;entryX=1;entryY=0.5;entryDx=0;entryDy=0;" edge="1" parent="1" source="Ws2jQ66hmhG18UFXB_ZG-21" target="Ws2jQ66hmhG18UFXB_ZG-3">
          <mxGeometry relative="1" as="geometry">
            <mxPoint x="290" y="310" as="sourcePoint" />
            <mxPoint x="290" y="210" as="targetPoint" />
            <Array as="points" />
          </mxGeometry>
        </mxCell>
        <mxCell id="Ws2jQ66hmhG18UFXB_ZG-27" value="COD" style="ellipse;whiteSpace=wrap;html=1;align=center;fontStyle=4;fillColor=#f8cecc;strokeColor=#b85450;" vertex="1" parent="1">
          <mxGeometry x="320" y="70" width="70" height="30" as="geometry" />
        </mxCell>
        <mxCell id="Ws2jQ66hmhG18UFXB_ZG-28" value="COD" style="ellipse;whiteSpace=wrap;html=1;align=center;fontStyle=4;fillColor=#f8cecc;strokeColor=#b85450;" vertex="1" parent="1">
          <mxGeometry x="94" y="590" width="70" height="30" as="geometry" />
        </mxCell>
        <mxCell id="Ws2jQ66hmhG18UFXB_ZG-29" value="COD" style="ellipse;whiteSpace=wrap;html=1;align=center;fontStyle=4;fillColor=#f8cecc;strokeColor=#b85450;" vertex="1" parent="1">
          <mxGeometry x="620" y="10" width="70" height="30" as="geometry" />
        </mxCell>
        <mxCell id="Ws2jQ66hmhG18UFXB_ZG-30" value="DNI" style="ellipse;whiteSpace=wrap;html=1;align=center;fontStyle=4;fillColor=#f8cecc;strokeColor=#b85450;" vertex="1" parent="1">
          <mxGeometry x="10" y="90" width="70" height="30" as="geometry" />
        </mxCell>
        <mxCell id="Ws2jQ66hmhG18UFXB_ZG-31" value="Nombre" style="ellipse;whiteSpace=wrap;html=1;align=center;fontStyle=4;fillColor=#f8cecc;strokeColor=#b85450;" vertex="1" parent="1">
          <mxGeometry x="410" y="585" width="70" height="30" as="geometry" />
        </mxCell>
        <mxCell id="Ws2jQ66hmhG18UFXB_ZG-32" value="FechaInicio" style="ellipse;whiteSpace=wrap;html=1;align=center;fillColor=#ffe6cc;strokeColor=#d79b00;" vertex="1" parent="1">
          <mxGeometry x="610" y="50" width="90" height="30" as="geometry" />
        </mxCell>
        <mxCell id="Ws2jQ66hmhG18UFXB_ZG-34" value="Ciudad" style="ellipse;whiteSpace=wrap;html=1;align=center;fillColor=#ffe6cc;strokeColor=#d79b00;" vertex="1" parent="1">
          <mxGeometry x="610" y="90" width="90" height="30" as="geometry" />
        </mxCell>
        <mxCell id="Ws2jQ66hmhG18UFXB_ZG-35" value="Precio" style="ellipse;whiteSpace=wrap;html=1;align=center;fillColor=#ffe6cc;strokeColor=#d79b00;" vertex="1" parent="1">
          <mxGeometry x="325" y="110" width="60" height="20" as="geometry" />
        </mxCell>
        <mxCell id="Ws2jQ66hmhG18UFXB_ZG-36" value="Destino" style="ellipse;whiteSpace=wrap;html=1;align=center;fillColor=#ffe6cc;strokeColor=#d79b00;" vertex="1" parent="1">
          <mxGeometry x="320" y="140" width="70" height="20" as="geometry" />
        </mxCell>
        <mxCell id="Ws2jQ66hmhG18UFXB_ZG-37" value="" style="endArrow=none;html=1;rounded=0;exitX=1;exitY=0.5;exitDx=0;exitDy=0;entryX=0.25;entryY=0;entryDx=0;entryDy=0;" edge="1" parent="1" source="Ws2jQ66hmhG18UFXB_ZG-27" target="Ws2jQ66hmhG18UFXB_ZG-2">
          <mxGeometry relative="1" as="geometry">
            <mxPoint x="350" y="300" as="sourcePoint" />
            <mxPoint x="510" y="300" as="targetPoint" />
          </mxGeometry>
        </mxCell>
        <mxCell id="Ws2jQ66hmhG18UFXB_ZG-38" value="" style="endArrow=none;html=1;rounded=0;exitX=1;exitY=0.5;exitDx=0;exitDy=0;entryX=0.25;entryY=0;entryDx=0;entryDy=0;" edge="1" parent="1" source="Ws2jQ66hmhG18UFXB_ZG-35" target="Ws2jQ66hmhG18UFXB_ZG-2">
          <mxGeometry relative="1" as="geometry">
            <mxPoint x="430" y="160" as="sourcePoint" />
            <mxPoint x="525" y="335" as="targetPoint" />
          </mxGeometry>
        </mxCell>
        <mxCell id="Ws2jQ66hmhG18UFXB_ZG-39" value="" style="endArrow=none;html=1;rounded=0;exitX=1;exitY=0.5;exitDx=0;exitDy=0;entryX=0.25;entryY=0;entryDx=0;entryDy=0;" edge="1" parent="1" source="Ws2jQ66hmhG18UFXB_ZG-36" target="Ws2jQ66hmhG18UFXB_ZG-2">
          <mxGeometry relative="1" as="geometry">
            <mxPoint x="370" y="220" as="sourcePoint" />
            <mxPoint x="465" y="395" as="targetPoint" />
          </mxGeometry>
        </mxCell>
        <mxCell id="Ws2jQ66hmhG18UFXB_ZG-40" value="" style="endArrow=none;html=1;rounded=0;exitX=0;exitY=0.5;exitDx=0;exitDy=0;entryX=1;entryY=0.5;entryDx=0;entryDy=0;" edge="1" parent="1" source="Ws2jQ66hmhG18UFXB_ZG-29" target="Ws2jQ66hmhG18UFXB_ZG-1">
          <mxGeometry relative="1" as="geometry">
            <mxPoint x="580" y="80" as="sourcePoint" />
            <mxPoint x="675" y="255" as="targetPoint" />
          </mxGeometry>
        </mxCell>
        <mxCell id="Ws2jQ66hmhG18UFXB_ZG-41" value="" style="endArrow=none;html=1;rounded=0;exitX=0;exitY=0.5;exitDx=0;exitDy=0;entryX=1;entryY=0.5;entryDx=0;entryDy=0;" edge="1" parent="1" source="Ws2jQ66hmhG18UFXB_ZG-32" target="Ws2jQ66hmhG18UFXB_ZG-1">
          <mxGeometry relative="1" as="geometry">
            <mxPoint x="580" y="70" as="sourcePoint" />
            <mxPoint x="675" y="245" as="targetPoint" />
          </mxGeometry>
        </mxCell>
        <mxCell id="Ws2jQ66hmhG18UFXB_ZG-42" value="" style="endArrow=none;html=1;rounded=0;exitX=0;exitY=0.5;exitDx=0;exitDy=0;entryX=1;entryY=0.5;entryDx=0;entryDy=0;" edge="1" parent="1" source="Ws2jQ66hmhG18UFXB_ZG-34" target="Ws2jQ66hmhG18UFXB_ZG-1">
          <mxGeometry relative="1" as="geometry">
            <mxPoint x="610" y="200" as="sourcePoint" />
            <mxPoint x="705" y="375" as="targetPoint" />
          </mxGeometry>
        </mxCell>
        <mxCell id="Ws2jQ66hmhG18UFXB_ZG-44" value="Nombre" style="ellipse;whiteSpace=wrap;html=1;align=center;fillColor=#ffe6cc;strokeColor=#d79b00;" vertex="1" parent="1">
          <mxGeometry x="10" y="125" width="70" height="30" as="geometry" />
        </mxCell>
        <mxCell id="Ws2jQ66hmhG18UFXB_ZG-45" value="Domicilio" style="ellipse;whiteSpace=wrap;html=1;align=center;fillColor=#ffe6cc;strokeColor=#d79b00;" vertex="1" parent="1">
          <mxGeometry x="10" y="160" width="70" height="30" as="geometry" />
        </mxCell>
        <mxCell id="Ws2jQ66hmhG18UFXB_ZG-46" value="" style="endArrow=none;html=1;rounded=0;exitX=1;exitY=0.5;exitDx=0;exitDy=0;entryX=0.5;entryY=0;entryDx=0;entryDy=0;" edge="1" parent="1" source="Ws2jQ66hmhG18UFXB_ZG-30" target="Ws2jQ66hmhG18UFXB_ZG-3">
          <mxGeometry relative="1" as="geometry">
            <mxPoint x="170" y="110" as="sourcePoint" />
            <mxPoint x="265" y="285" as="targetPoint" />
          </mxGeometry>
        </mxCell>
        <mxCell id="Ws2jQ66hmhG18UFXB_ZG-47" value="" style="endArrow=none;html=1;rounded=0;exitX=1;exitY=0.5;exitDx=0;exitDy=0;entryX=0.5;entryY=0;entryDx=0;entryDy=0;" edge="1" parent="1" source="Ws2jQ66hmhG18UFXB_ZG-44" target="Ws2jQ66hmhG18UFXB_ZG-3">
          <mxGeometry relative="1" as="geometry">
            <mxPoint x="180" y="120" as="sourcePoint" />
            <mxPoint x="275" y="295" as="targetPoint" />
          </mxGeometry>
        </mxCell>
        <mxCell id="Ws2jQ66hmhG18UFXB_ZG-48" value="" style="endArrow=none;html=1;rounded=0;exitX=1;exitY=0.5;exitDx=0;exitDy=0;entryX=0.5;entryY=0;entryDx=0;entryDy=0;" edge="1" parent="1" source="Ws2jQ66hmhG18UFXB_ZG-45" target="Ws2jQ66hmhG18UFXB_ZG-3">
          <mxGeometry relative="1" as="geometry">
            <mxPoint x="190" y="160" as="sourcePoint" />
            <mxPoint x="285" y="335" as="targetPoint" />
          </mxGeometry>
        </mxCell>
        <mxCell id="Ws2jQ66hmhG18UFXB_ZG-49" value="Tipo" style="ellipse;whiteSpace=wrap;html=1;align=center;fillColor=#ffe6cc;strokeColor=#d79b00;" vertex="1" parent="1">
          <mxGeometry x="95" y="630" width="70" height="30" as="geometry" />
        </mxCell>
      </root>
    </mxGraphModel>
  </diagram>
</mxfile>
